<svg xmlns="http://www.w3.org/2000/svg" viewBox="0 0 400 400" role="img" aria-label="Caesar Salát">
  <rect width="400" height="400" fill="#FAFAF7"/>
  <ellipse cx="200" cy="322" rx="120" ry="20" fill="#000" opacity="0.06"/>
  <!-- shallow plate -->
  <path d="M70 196 Q200 320 330 196 Z" fill="#ffffff" stroke="#e6e2d8" stroke-width="3"/>
  <ellipse cx="200" cy="196" rx="130" ry="30" fill="#ffffff" stroke="#e6e2d8" stroke-width="3"/>
  <ellipse cx="200" cy="196" rx="108" ry="22" fill="#f3efe4"/>
  <!-- romaine leaves -->
  <path d="M150 192 q-12 -26 6 -40 q14 18 6 40 Z" fill="#5fa84f"/>
  <path d="M170 196 q-6 -30 12 -40 q10 22 -2 42 Z" fill="#74c05f"/>
  <path d="M198 194 q0 -32 18 -40 q6 24 -6 42 Z" fill="#5fa84f"/>
  <path d="M226 196 q8 -28 26 -34 q0 24 -16 40 Z" fill="#74c05f"/>
  <!-- croutons -->
  <rect x="178" y="186" width="16" height="14" rx="3" fill="#e0a94e"/>
  <rect x="206" y="190" width="15" height="13" rx="3" fill="#d99a3e"/>
  <rect x="156" y="196" width="14" height="12" rx="3" fill="#e8b863"/>
  <!-- parmesan shavings -->
  <path d="M236 188 l14 -4 -3 10 Z" fill="#f4e9c7"/>
  <path d="M150 188 l13 -5 -2 10 Z" fill="#f4e9c7"/>
  <!-- cherry tomato halves -->
  <circle cx="224" cy="200" r="8" fill="#e2493b"/>
  <circle cx="224" cy="200" r="3" fill="#f0857b"/>
  <!-- pepper specks -->
  <circle cx="192" cy="200" r="1.6" fill="#3a3a3a"/>
  <circle cx="214" cy="184" r="1.6" fill="#3a3a3a"/>
  <circle cx="168" cy="204" r="1.6" fill="#3a3a3a"/>
</svg>
